<svg width="20" height="20" viewBox="0 0 20 20" fill="none" xmlns="http://www.w3.org/2000/svg">
<path d="M15.2381 19.5H4.7619V7.15L11.4286 0.5L12.619 1.6875C12.7302 1.79833 12.8214 1.94875 12.8929 2.13875C12.9643 2.32875 13 2.51083 13 2.685V3.0175L11.9524 7.15H18.0952C18.6032 7.15 19.0476 7.34 19.4286 7.72C19.8095 8.1 20 8.54333 20 9.05V10.95C20 11.0608 19.9841 11.1796 19.9524 11.3062C19.9206 11.4329 19.8889 11.5517 19.8571 11.6625L17 18.36C16.8571 18.6767 16.619 18.9458 16.2857 19.1675C15.9524 19.3892 15.6032 19.5 15.2381 19.5ZM6.66667 17.6H15.2381L18.0952 10.95V9.05H9.52381L10.8095 3.825L6.66667 7.9575V17.6ZM4.7619 7.15V9.05H1.90476V17.6H4.7619V19.5H0V7.15H4.7619Z" fill="black"/>
</svg>
